<svg xmlns="http://www.w3.org/2000/svg" viewBox="0 0 64 64" role="img" aria-label="GitHub Pro icon">
  <defs>
    <linearGradient id="bg" x1="0" y1="0" x2="1" y2="1">
      <stop offset="0%" stop-color="#79c0ff" />
      <stop offset="100%" stop-color="#f78166" />
    </linearGradient>
  </defs>
  <rect width="64" height="64" rx="12" fill="#0d1117" />
  <rect x="4" y="4" width="56" height="56" rx="10" fill="url(#bg)" opacity="0.18" />
  <path d="M20 44V20h8c3.8 0 6.2 2.1 6.2 5.4 0 2.1-1 3.8-2.8 4.6 2.5.7 4 2.8 4 5.5 0 4.1-2.9 6.5-7.7 6.5H20zm5.1-14h2.5c1.6 0 2.6-.9 2.6-2.4 0-1.4-1-2.3-2.7-2.3h-2.4V30zm0 9.7h2.8c1.9 0 3-.9 3-2.6 0-1.6-1.1-2.6-3.1-2.6h-2.7v5.2z" fill="#e6edf3" />
  <circle cx="47" cy="18" r="5" fill="#56d364" />
</svg>
