<svg xmlns="http://www.w3.org/2000/svg" viewBox="0 0 64 64" role="img" aria-label="Git icon">
  <rect width="64" height="64" rx="12" fill="#0d1117"/>
  <g transform="translate(32 32) rotate(45) translate(-32 -32)">
    <rect x="14" y="14" width="36" height="36" rx="6" fill="#F05033"/>
    <path d="M32 22.5a3.5 3.5 0 00-3.5 3.5c0 1.12.53 2.1 1.35 2.74v6.22a3.5 3.5 0 102 0v-2.24h4.5a3.5 3.5 0 103.3-2.36 3.5 3.5 0 00-3.3 2.36h-4.5v-4.03A3.49 3.49 0 0035.5 26a3.5 3.5 0 00-3.5-3.5z" fill="#fff"/>
    <circle cx="32" cy="26" r="1.65" fill="#F05033"/>
    <circle cx="31" cy="38.5" r="1.65" fill="#F05033"/>
    <circle cx="39.5" cy="34.5" r="1.65" fill="#F05033"/>
  </g>
</svg>
